<mxfile host="app.diagrams.net" modified="2023-08-02T13:08:08.873Z" agent="Mozilla/5.0 (Macintosh; Intel Mac OS X 10_15_7) AppleWebKit/537.36 (KHTML, like Gecko) Chrome/115.0.0.0 Safari/537.36" etag="hBYkFq_d2Xkj7rs7oD-e" version="21.6.6" type="device">
  <diagram name="Page-1" id="lEf1ckeQihUGR_b9X7Ng">
    <mxGraphModel dx="867" dy="555" grid="1" gridSize="10" guides="1" tooltips="1" connect="1" arrows="1" fold="1" page="1" pageScale="1" pageWidth="827" pageHeight="1169" math="0" shadow="0">
      <root>
        <mxCell id="0" />
        <mxCell id="1" parent="0" />
        <mxCell id="K0-tkrvHwsJ7qo-xaavv-1" value="UI LAYER" style="swimlane;horizontal=0;whiteSpace=wrap;html=1;startSize=40;" vertex="1" parent="1">
          <mxGeometry x="160" y="220" width="480" height="100" as="geometry" />
        </mxCell>
        <mxCell id="K0-tkrvHwsJ7qo-xaavv-5" value="UI LAYER&lt;br&gt;(REACT JS)" style="rounded=0;whiteSpace=wrap;html=1;" vertex="1" parent="K0-tkrvHwsJ7qo-xaavv-1">
          <mxGeometry x="80" y="20" width="120" height="60" as="geometry" />
        </mxCell>
        <mxCell id="K0-tkrvHwsJ7qo-xaavv-2" value="APPLICATION&lt;br&gt;LAYER" style="swimlane;horizontal=0;whiteSpace=wrap;html=1;startSize=40;" vertex="1" parent="1">
          <mxGeometry x="160" y="320" width="480" height="100" as="geometry" />
        </mxCell>
        <mxCell id="K0-tkrvHwsJ7qo-xaavv-6" value="TEXT GENERATION&lt;br&gt;MODEL" style="rounded=0;whiteSpace=wrap;html=1;" vertex="1" parent="K0-tkrvHwsJ7qo-xaavv-2">
          <mxGeometry x="140" y="20" width="120" height="60" as="geometry" />
        </mxCell>
        <mxCell id="K0-tkrvHwsJ7qo-xaavv-7" value="NLU / NLP" style="rounded=0;whiteSpace=wrap;html=1;" vertex="1" parent="K0-tkrvHwsJ7qo-xaavv-2">
          <mxGeometry x="320" y="20" width="120" height="60" as="geometry" />
        </mxCell>
        <mxCell id="K0-tkrvHwsJ7qo-xaavv-11" value="" style="endArrow=classic;html=1;rounded=0;exitX=0;exitY=0.5;exitDx=0;exitDy=0;entryX=1;entryY=0.5;entryDx=0;entryDy=0;" edge="1" parent="K0-tkrvHwsJ7qo-xaavv-2" source="K0-tkrvHwsJ7qo-xaavv-7" target="K0-tkrvHwsJ7qo-xaavv-6">
          <mxGeometry width="50" height="50" relative="1" as="geometry">
            <mxPoint x="230" y="110" as="sourcePoint" />
            <mxPoint x="280" y="60" as="targetPoint" />
          </mxGeometry>
        </mxCell>
        <mxCell id="K0-tkrvHwsJ7qo-xaavv-3" value="API LAYER" style="swimlane;horizontal=0;whiteSpace=wrap;html=1;startSize=40;" vertex="1" parent="1">
          <mxGeometry x="160" y="420" width="480" height="100" as="geometry" />
        </mxCell>
        <mxCell id="K0-tkrvHwsJ7qo-xaavv-8" value="API&lt;br&gt;(FLASK)" style="rounded=0;whiteSpace=wrap;html=1;" vertex="1" parent="K0-tkrvHwsJ7qo-xaavv-3">
          <mxGeometry x="80" y="20" width="120" height="60" as="geometry" />
        </mxCell>
        <mxCell id="K0-tkrvHwsJ7qo-xaavv-13" value="" style="endArrow=classic;startArrow=classic;html=1;rounded=0;exitX=0.817;exitY=0;exitDx=0;exitDy=0;exitPerimeter=0;entryX=0.312;entryY=1;entryDx=0;entryDy=0;entryPerimeter=0;" edge="1" parent="K0-tkrvHwsJ7qo-xaavv-3">
          <mxGeometry width="50" height="50" relative="1" as="geometry">
            <mxPoint x="141" y="120" as="sourcePoint" />
            <mxPoint x="140" y="80" as="targetPoint" />
          </mxGeometry>
        </mxCell>
        <mxCell id="K0-tkrvHwsJ7qo-xaavv-15" value="" style="endArrow=classic;startArrow=classic;html=1;rounded=0;entryX=0.5;entryY=1;entryDx=0;entryDy=0;" edge="1" parent="K0-tkrvHwsJ7qo-xaavv-3" target="K0-tkrvHwsJ7qo-xaavv-7">
          <mxGeometry width="50" height="50" relative="1" as="geometry">
            <mxPoint x="200" y="50" as="sourcePoint" />
            <mxPoint x="250" as="targetPoint" />
            <Array as="points">
              <mxPoint x="380" y="50" />
            </Array>
          </mxGeometry>
        </mxCell>
        <mxCell id="K0-tkrvHwsJ7qo-xaavv-4" value="DATA LAYER" style="swimlane;horizontal=0;whiteSpace=wrap;html=1;startSize=40;" vertex="1" parent="1">
          <mxGeometry x="160" y="520" width="480" height="100" as="geometry" />
        </mxCell>
        <mxCell id="K0-tkrvHwsJ7qo-xaavv-9" value="DATABASE&lt;br&gt;(MYSQL)" style="rounded=0;whiteSpace=wrap;html=1;" vertex="1" parent="K0-tkrvHwsJ7qo-xaavv-4">
          <mxGeometry x="80" y="20" width="120" height="60" as="geometry" />
        </mxCell>
        <mxCell id="K0-tkrvHwsJ7qo-xaavv-10" value="" style="endArrow=classic;html=1;rounded=0;exitX=1;exitY=0.5;exitDx=0;exitDy=0;entryX=0.5;entryY=0;entryDx=0;entryDy=0;" edge="1" parent="1" source="K0-tkrvHwsJ7qo-xaavv-5" target="K0-tkrvHwsJ7qo-xaavv-7">
          <mxGeometry width="50" height="50" relative="1" as="geometry">
            <mxPoint x="390" y="430" as="sourcePoint" />
            <mxPoint x="540" y="270" as="targetPoint" />
            <Array as="points">
              <mxPoint x="540" y="270" />
            </Array>
          </mxGeometry>
        </mxCell>
        <mxCell id="K0-tkrvHwsJ7qo-xaavv-12" value="" style="endArrow=classic;startArrow=classic;html=1;rounded=0;exitX=0.817;exitY=0;exitDx=0;exitDy=0;exitPerimeter=0;entryX=0.312;entryY=1;entryDx=0;entryDy=0;entryPerimeter=0;" edge="1" parent="1" source="K0-tkrvHwsJ7qo-xaavv-8" target="K0-tkrvHwsJ7qo-xaavv-6">
          <mxGeometry width="50" height="50" relative="1" as="geometry">
            <mxPoint x="390" y="430" as="sourcePoint" />
            <mxPoint x="440" y="380" as="targetPoint" />
          </mxGeometry>
        </mxCell>
        <mxCell id="K0-tkrvHwsJ7qo-xaavv-14" value="" style="endArrow=classic;html=1;rounded=0;exitX=0.25;exitY=0;exitDx=0;exitDy=0;entryX=0.25;entryY=1;entryDx=0;entryDy=0;" edge="1" parent="1" source="K0-tkrvHwsJ7qo-xaavv-8" target="K0-tkrvHwsJ7qo-xaavv-5">
          <mxGeometry width="50" height="50" relative="1" as="geometry">
            <mxPoint x="260" y="430" as="sourcePoint" />
            <mxPoint x="310" y="380" as="targetPoint" />
          </mxGeometry>
        </mxCell>
      </root>
    </mxGraphModel>
  </diagram>
</mxfile>
